<svg viewBox="0 0 24 24" fill="currentColor" width="1em" height="1em" aria-hidden="true" class="x1lliihq x1k90msu x2h7rmj x1qfuztq x198g3q0 xxk0z11 xvy4d1p">
                                    <path fill-rule="evenodd" clip-rule="evenodd" d="m19.007 9.997-6.338-5.704a1 1 0 0 0-1.338 0L4.993 9.997A3 3 0 0 0 4 12.227v6.61c0 .216.07.38.149.48a.432.432 0 0 0 .284.167c.86.14 2.04.29 3.567.391V16a3 3 0 0 1 3-3h2a3 3 0 0 1 3 3v3.875a37.895 37.895 0 0 0 3.567-.39.432.432 0 0 0 .284-.168.773.773 0 0 0 .149-.48v-6.61a3 3 0 0 0-.993-2.23zM3.655 8.51l6.338-5.704a3 3 0 0 1 4.014 0l6.338 5.704A5 5 0 0 1 22 12.227v6.61c0 1.292-.836 2.413-2.11 2.621-.94.153-2.208.312-3.833.418-1.125.073-2.057-.836-2.057-1.964V16a1 1 0 0 0-1-1h-2a1 1 0 0 0-1 1v3.912c0 1.128-.932 2.037-2.057 1.964a40.092 40.092 0 0 1-3.832-.418C2.836 21.25 2 20.13 2 18.838v-6.611A5 5 0 0 1 3.655 8.51z">
                                    </path>
                                </svg>