<svg viewBox="0 0 24 24" fill="currentColor" width="1em" height="1em" aria-hidden="true" class="x1lliihq x1k90msu x2h7rmj x1qfuztq x198g3q0 xxk0z11 xvy4d1p">
                                    <path fill-rule="evenodd" clip-rule="evenodd" d="M12 21a9 9 0 1 0 0-18 9 9 0 0 0 0 18zm0 2c6.075 0 11-4.925 11-11S18.075 1 12 1 1 5.925 1 12s4.925 11 11 11zm0-13.702c.483 0 .875.391.875.875V17a.875.875 0 0 1-1.75 0v-6.827c0-.484.392-.875.875-.875zm0-1.275c.833 0 1.25-.405 1.25-1.012C13.25 6.405 12.833 6 12 6s-1.25.405-1.25 1.011c0 .607.417 1.012 1.25 1.012z">
                                    </path>
                                </svg>