<svg viewBox="0 0 24 24" fill="currentColor" width="1em" height="1em" aria-hidden="true" class="x1lliihq x1k90msu x2h7rmj x1qfuztq x198g3q0 xxk0z11 xvy4d1p">
                                    <path d="M12 12a2 2 0 0 1 1 3.732V17a1 1 0 1 1-2 0v-1.268A2 2 0 0 1 12 12z"></path>
                                    <path fill-rule="evenodd" clip-rule="evenodd" d="M7 6a5 5 0 0 1 10 0v2h.857c1.282 0 2.417.818 2.664 2.076A25.71 25.71 0 0 1 21 15a25.71 25.71 0 0 1-.479 4.924C20.274 21.182 19.14 22 17.857 22H6.143c-1.282 0-2.417-.818-2.664-2.076A25.711 25.711 0 0 1 3 15c0-1.984.236-3.692.479-4.924C3.726 8.818 4.86 8 6.143 8H7V6zm8 0v2H9V6a3 3 0 1 1 6 0zm-8.857 4h11.714a.84.84 0 0 1 .508.157c.107.082.17.182.194.305.223 1.133.441 2.71.441 4.538 0 1.828-.218 3.405-.441 4.538a.488.488 0 0 1-.194.305.84.84 0 0 1-.508.157H6.143a.84.84 0 0 1-.508-.157.489.489 0 0 1-.194-.305A23.712 23.712 0 0 1 5 15c0-1.828.218-3.405.441-4.538a.489.489 0 0 1 .194-.305.84.84 0 0 1 .508-.157z">
                                    </path>
                                </svg>