<svg viewBox="0 0 24 24" fill="currentColor" width="1em" height="1em" aria-hidden="true" class="x1lliihq x1k90msu x2h7rmj x1qfuztq x198g3q0 xxk0z11 xvy4d1p">
                                    <path fill-rule="evenodd" clip-rule="evenodd" d="M16 12a4 4 0 1 1-8 0 4 4 0 0 1 8 0zm-2 0a2 2 0 1 1-4 0 2 2 0 0 1 4 0z">
                                    </path>
                                    <path fill-rule="evenodd" clip-rule="evenodd" d="m22.191 9.207-2.224 2.06a8.112 8.112 0 0 1 0 1.466l2.224 2.06a1 1 0 0 1 .187 1.233l-1.702 2.948a1 1 0 0 1-1.162.455l-2.895-.896a7.991 7.991 0 0 1-1.27.735l-.672 2.954a1 1 0 0 1-.975.778H10.3a1 1 0 0 1-.975-.778l-.672-2.954a8 8 0 0 1-1.27-.735l-2.895.896a1 1 0 0 1-1.162-.455l-1.702-2.948a1 1 0 0 1 .187-1.233l2.224-2.06a8.1 8.1 0 0 1 0-1.466L1.81 9.207a1 1 0 0 1-.187-1.233l1.702-2.948a1 1 0 0 1 1.162-.455l2.895.896a7.992 7.992 0 0 1 1.27-.735l.672-2.954A1 1 0 0 1 10.299 1h3.403a1 1 0 0 1 .975.778l.672 2.954a7.99 7.99 0 0 1 1.27.735l2.895-.896a1 1 0 0 1 1.162.455l1.702 2.948a1 1 0 0 1-.187 1.233zm-8.574-3.071.894.412c.335.155.653.34.952.551l.805.57 3.075-.951.903 1.564-2.36 2.186.09.98a6.093 6.093 0 0 1 0 1.104l-.09.98 2.36 2.185-.903 1.565-3.075-.951-.805.57a5.993 5.993 0 0 1-.952.55l-.894.413L12.904 21h-1.807l-.713-3.136-.894-.412a5.993 5.993 0 0 1-.952-.551l-.805-.57-3.075.951-.904-1.565 2.36-2.185-.089-.98a6.102 6.102 0 0 1 0-1.104l.09-.98-2.36-2.186.903-1.564 3.075.951.805-.57c.299-.212.617-.396.952-.55l.894-.413L11.097 3h1.807l.713 3.136z">
                                    </path>
                                </svg>