<svg width="229" height="20" viewBox="0 0 229 20" fill="none" xmlns="http://www.w3.org/2000/svg">
<g clip-path="url(#clip0_3269_77481)">
<path d="M10 6.40625L20 3.125V0H0V3.125L10 6.40625Z" fill="#8F96BD"/>
<path d="M0 6.09375V20H4.6875V7.65625L0 6.09375Z" fill="#8F96BD"/>
<path d="M20 6.09375V20H15.3125V7.65625L20 6.09375Z" fill="#8F96BD"/>
<path d="M12.3438 8.59375L11.2649 8.95336C10.7956 9.1098 10.5609 9.18802 10.3209 9.21909C10.1078 9.24666 9.89216 9.24666 9.67914 9.21909C9.43907 9.18802 9.20441 9.1098 8.73509 8.95336L7.65625 8.59375V20H12.3438V8.59375Z" fill="#8F96BD"/>
<path d="M80.4814 17.257H89.6334V14.4422H83.4924V11.3072H88.4022V8.49484H83.4924V5.58818H89.6334V2.77832H80.4814V17.257Z" fill="#8F96BD"/>
<path d="M151.664 17.257H160.816V14.4422H154.675V11.3072H159.585V8.49484H154.675V5.58818H160.816V2.77832H151.664V17.257Z" fill="#8F96BD"/>
<path d="M42.5087 13.0542L38.9095 2.78522H35V17.2541H37.8421V7.46669L41.3172 17.259H43.6828L47.0611 7.49896V17.2541H49.9404V2.78027H46.1501L42.5087 13.0542Z" fill="#8F96BD"/>
<path d="M103.236 7.72741V7.10685C103.236 4.22997 101.325 2.77539 98.768 2.77539H92.5625V17.2467H95.566V12.2475H97.7652L100.247 17.2566H103.581L100.677 11.7015C102.524 11.0561 103.236 9.66849 103.236 7.72741ZM100.228 7.68768C100.228 8.94368 99.4829 9.42523 98.5124 9.42523H95.5337V5.58774H98.5124C99.4829 5.58774 100.228 6.08418 100.228 7.39478V7.68768Z" fill="#8F96BD"/>
<path d="M148.931 7.72741V7.10685C148.931 4.22997 147.017 2.77539 144.463 2.77539H138.257V17.2467H141.261V12.2475H143.458L145.94 17.2566H149.283L146.387 11.7015C148.219 11.0561 148.931 9.66849 148.931 7.72741ZM145.922 7.68768C145.922 8.94368 145.178 9.42523 144.207 9.42523H141.229V5.58774H144.207C145.178 5.58774 145.922 6.08418 145.922 7.39478V7.68768Z" fill="#8F96BD"/>
<path d="M58.437 2.57715C55.1357 2.57715 52.7104 5.00972 52.7104 8.6263V11.394C52.7104 15.013 55.1059 17.4704 58.437 17.4704C61.7681 17.4704 64.2229 15.013 64.2229 11.394V8.6263C64.2229 4.99979 61.7359 2.57715 58.437 2.57715ZM61.2095 11.4238C61.2095 13.5287 59.9387 14.6506 58.4296 14.6506C56.9204 14.6506 55.7239 13.5535 55.7239 11.4238V8.67843C55.7239 6.54373 56.908 5.41432 58.4296 5.41432C59.9512 5.41432 61.2095 6.54869 61.2095 8.67843V11.4238Z" fill="#8F96BD"/>
<path d="M71.9255 2.73828H66.7476V17.2567H71.9255C75.2542 17.2567 77.7463 14.7993 77.7463 11.1803V8.78991C77.7463 5.16589 75.284 2.73828 71.9255 2.73828ZM74.6684 11.1356C74.6684 13.2405 73.4 14.3625 71.8759 14.3625H69.7263V5.57793H71.8833C73.4074 5.57793 74.6758 6.70982 74.6758 8.80481L74.6684 11.1356Z" fill="#8F96BD"/>
<path d="M214.592 7.72741V7.10685C214.592 4.22997 212.681 2.77539 210.124 2.77539H203.919V17.2467H206.917V12.2475H209.114L211.596 17.2566H214.94L212.04 11.7015C213.867 11.0561 214.592 9.66849 214.592 7.72741ZM211.581 7.68768C211.581 8.94368 210.837 9.42523 209.869 9.42523H206.89V5.58774H209.869C210.842 5.58774 211.581 6.08418 211.581 7.39478V7.68768Z" fill="#8F96BD"/>
<path d="M197.942 11.6198C197.942 13.7545 196.924 14.668 195.447 14.668C193.97 14.668 192.992 13.7595 192.992 11.6198V2.7832H189.989V11.6198C189.989 15.2389 192.19 17.4605 195.449 17.4605C198.709 17.4605 200.96 15.2215 200.96 11.6198V2.7832H197.942V11.6198Z" fill="#8F96BD"/>
<path d="M167.564 2.75354L162.416 17.2571H165.422L166.393 14.3753H171.752L172.712 17.2199H175.837L170.796 2.74609L167.564 2.75354ZM167.316 11.6672L169.163 6.25097L170.9 11.6796L167.316 11.6672Z" fill="#8F96BD"/>
<path d="M225.519 2.78516L222.193 9.0453L218.966 2.78516H215.657L220.649 11.8676V17.2614H223.652V11.9246L228.808 2.78516H225.519Z" fill="#8F96BD"/>
<path d="M114.577 11.8905L109.526 2.77832H106.138V17.257H109.077V7.40019L114.644 17.2546H117.506V2.77832H114.577V11.8905Z" fill="#8F96BD"/>
<path d="M124.893 5.58268H128.974V17.2491H131.98V5.58268H136.051V2.78027H124.888L124.893 5.58268Z" fill="#8F96BD"/>
<path d="M182.259 17.5025C178.99 17.5025 176.736 16.0802 176.736 12.9749V12.5505H179.673V12.9029C179.673 14.5089 180.914 14.916 182.185 14.916C183.535 14.916 184.57 14.5089 184.57 13.3075C184.57 12.1062 183.019 11.6296 181.095 11.0463C179.442 10.5498 177.009 9.71827 177.009 6.74955C177.009 3.8677 179.208 2.5 182.239 2.5C184.721 2.5 187.283 3.60955 187.283 6.71976V7.03501H184.404V6.83146C184.404 5.74177 183.552 5.09391 182.259 5.09391C181.077 5.09391 180.097 5.42652 180.097 6.4616C180.097 7.86653 181.877 8.11724 183.522 8.63353C185.168 9.14984 187.618 10.0261 187.618 12.8732C187.618 16.2117 185.322 17.5025 182.259 17.5025Z" fill="#8F96BD"/>
</g>
<defs>
<clipPath id="clip0_3269_77481">
<rect width="229" height="20" fill="white"/>
</clipPath>
</defs>
</svg>
