<svg width="120" height="32" viewBox="0 0 120 32" fill="none" xmlns="http://www.w3.org/2000/svg">
<g clip-path="url(#clip0_3269_77479)">
<path fill-rule="evenodd" clip-rule="evenodd" d="M119.38 5.53148C118.956 5.05628 118.388 4.81468 117.62 4.81468C116.852 4.81468 116.267 5.06908 115.859 5.59388C115.451 6.10108 115.239 6.86268 115.239 7.86108V15.0995C114.295 14.0819 113.315 13.3523 112.319 12.8611C111.634 12.5381 110.902 12.3238 110.15 12.2259C109.653 12.16 109.152 12.1279 108.651 12.1299C106.156 12.1299 104.135 12.9875 102.585 14.7027C101.052 16.4179 100.284 18.7987 100.284 21.8579C100.284 23.3043 100.481 24.6531 100.871 25.8899C101.265 27.1251 101.815 28.2067 102.567 29.1251C103.294 30.0194 104.205 30.7455 105.239 31.2531C106.283 31.7513 107.426 32.0057 108.582 31.9971C109.134 31.9971 109.657 31.9507 110.145 31.8563C110.473 31.8083 110.78 31.7283 111.092 31.6323C111.853 31.38 112.573 31.0166 113.228 30.5539C113.962 30.0155 114.634 29.3985 115.233 28.7139V29.1891C115.233 30.0931 115.462 30.7763 115.902 31.2691C116.359 31.7443 116.931 31.9971 117.614 31.9971C118.315 31.9971 118.884 31.7587 119.326 31.3011C119.763 30.8243 119.993 30.1267 119.993 29.1923V7.61148C119.999 6.70428 119.788 6.00508 119.38 5.53148ZM114.31 25.4947C113.87 26.4147 113.281 27.0979 112.566 27.5427C111.83 27.9891 111.03 28.2083 110.15 28.2083H110.134C109.279 28.2122 108.441 27.9707 107.719 27.5123C106.985 27.0355 106.399 26.3379 105.977 25.4179C105.555 24.4819 105.343 23.3539 105.343 22.0211C105.343 20.7667 105.537 19.6579 105.947 18.7219C106.339 17.7683 106.908 17.0387 107.627 16.5331C108.363 16.0083 109.179 15.7699 110.103 15.7699H110.151C111.017 15.7699 111.815 16.0227 112.55 16.5139C113.284 17.0067 113.87 17.7235 114.31 18.6579C114.75 19.5939 114.963 20.7219 114.963 22.0211C114.963 23.4163 114.75 24.5763 114.31 25.4947ZM98.4762 25.7027C98.1658 25.4339 97.7418 25.2899 97.2202 25.2899C96.7466 25.2899 96.3882 25.4019 96.1274 25.6083C95.4906 26.1779 94.9866 26.6387 94.5914 26.9715C94.2042 27.2899 93.7594 27.6067 93.2906 27.9059C92.8476 28.1895 92.3642 28.4048 91.857 28.5443C91.3196 28.6876 90.7651 28.7566 90.209 28.7491C90.0794 28.7491 89.9482 28.7491 89.833 28.7331C89.0967 28.6943 88.381 28.4763 87.7482 28.0979C86.9962 27.6707 86.4106 27.0387 85.953 26.2115C85.513 25.3539 85.2842 24.3715 85.2698 23.2595H95.1018C96.4218 23.2595 97.4474 23.0675 98.1658 22.7203C98.9018 22.3379 99.2586 21.5443 99.2586 20.3235C99.2586 18.9907 98.9002 17.6899 98.1994 16.4035C97.4986 15.1315 96.4554 14.0851 95.0378 13.2787C93.633 12.4691 91.9546 12.0723 89.9818 12.0723H89.8362C88.385 12.0883 87.0474 12.3283 85.8586 12.7715C84.6758 13.216 83.6016 13.9083 82.7082 14.8019C81.8548 15.7214 81.201 16.8076 80.7882 17.9923C80.3353 19.2869 80.108 20.6496 80.1162 22.0211C80.1162 25.1011 81.0154 27.5123 82.8074 29.3043C84.5034 31.0035 86.8506 31.8931 89.833 31.9875C89.9978 32.0035 90.1738 32.0035 90.3562 32.0035C91.7578 32.0035 93.0122 31.8275 94.1034 31.4643C95.1962 31.0995 96.0938 30.6531 96.8138 30.1155C97.5274 29.5603 98.0666 28.9891 98.425 28.4035C98.7834 27.8163 98.9642 27.2915 98.9642 26.8627C98.9642 26.3667 98.8042 25.9715 98.4762 25.7027ZM86.7386 16.7347C87.5386 15.8931 88.5642 15.4803 89.8202 15.4803H89.8394C91.1418 15.4803 92.2026 15.8931 93.001 16.7171C93.801 17.5443 94.273 18.7971 94.3882 20.4771H85.2714C85.433 18.8291 85.9242 17.5747 86.7386 16.7347ZM77.0666 25.2883C76.5786 25.2883 76.2202 25.4003 75.9594 25.6051C75.3402 26.1763 74.8186 26.6371 74.4266 26.9699C74.0346 27.2867 73.6106 27.6051 73.137 27.9043C72.6666 28.1907 72.1914 28.4131 71.6874 28.5411C71.1503 28.6856 70.5956 28.7545 70.0394 28.7459C69.9114 28.7459 69.7802 28.7459 69.665 28.7299C68.9284 28.6911 68.2124 28.4736 67.5786 28.0963C66.821 27.6462 66.2055 26.9919 65.8026 26.2083C65.345 25.3523 65.1162 24.3683 65.0986 23.2579H74.9466C76.2506 23.2579 77.2762 23.0659 78.0106 22.7171C78.7274 22.3363 79.089 21.5427 79.089 20.3219C79.089 18.9875 78.745 17.6867 78.0442 16.4019C77.3434 15.1299 76.2842 14.0819 74.8826 13.2755C73.4778 12.4675 71.7834 12.0707 69.8298 12.0707H69.665C68.2154 12.0867 66.8954 12.3267 65.6874 12.7699C64.508 13.2092 63.4392 13.9018 62.5562 14.7987C61.6906 15.7124 61.0296 16.8 60.617 17.9891C60.1629 19.2834 59.9356 20.6463 59.945 22.0179C59.945 25.0979 60.8602 27.5091 62.6522 29.3011C64.3482 31.0019 66.6794 31.8899 69.6634 31.9843C69.8426 32.0003 70.0026 32.0003 70.185 32.0003C71.6026 32.0003 72.8426 31.8259 73.9338 31.4627C75.025 31.0963 75.9242 30.6515 76.6394 30.1139C77.3754 29.5571 77.8954 28.9875 78.2554 28.4019C78.6122 27.8147 78.7946 27.2899 78.7946 26.8595C78.7946 26.3683 78.6298 25.9715 78.321 25.7027C77.9978 25.4307 77.5706 25.2883 77.0666 25.2883ZM66.5674 16.7347C67.3658 15.8931 68.3946 15.4803 69.6506 15.4803H69.6682C70.9706 15.4803 72.0314 15.8931 72.8298 16.7171C73.6442 17.5443 74.1018 18.7971 74.233 20.4771H65.1018C65.281 18.8291 65.7722 17.5747 66.5674 16.7347ZM10.4746 28.7491V17.0675C10.8138 17.0995 11.1418 17.1139 11.4842 17.1139C13.0526 17.1212 14.5947 16.7103 15.9514 15.9235V28.7459C15.9514 29.8419 15.6906 30.6499 15.1834 31.1907C14.6794 31.7283 14.0106 31.9971 13.1962 31.9971C12.3962 31.9971 11.761 31.7283 11.2394 31.1731C10.7354 30.6355 10.4746 29.8259 10.4746 28.7491ZM57.8346 5.53308C57.4106 5.05628 56.825 4.81468 56.0906 4.81468C55.3226 4.81468 54.737 5.06908 54.3274 5.59388C53.905 6.10108 53.7082 6.86268 53.7082 7.86108V15.0995C52.7642 14.0819 51.7882 13.3523 50.7898 12.8611C50.1043 12.5402 49.3737 12.326 48.6234 12.2259C48.1259 12.1598 47.6245 12.1277 47.1226 12.1299C44.6282 12.1299 42.5898 12.9875 41.0586 14.7027C39.5242 16.4179 38.7578 18.7987 38.7578 21.8579C38.7578 23.3043 38.9546 24.6531 39.3274 25.8899C39.6874 27.0679 40.2696 28.1661 41.0426 29.1251C41.7683 30.02 42.68 30.7461 43.7146 31.2531C44.7579 31.7513 45.9009 32.0057 47.057 31.9971C47.5946 31.9971 48.1162 31.9507 48.6202 31.8563C48.9482 31.8083 49.257 31.7283 49.5674 31.6323C50.3287 31.38 51.0484 31.0166 51.7034 30.5539C52.3706 30.0771 53.0266 29.4579 53.7066 28.7139V29.1891C53.7066 30.0931 53.937 30.7763 54.377 31.2691C54.817 31.7443 55.4058 31.9971 56.089 31.9971C56.7562 31.9971 57.345 31.7587 57.785 31.3011C58.225 30.8243 58.4346 30.1267 58.4346 29.1923V7.61148C58.4362 6.70428 58.2426 6.00508 57.8362 5.53148L57.8346 5.53308ZM52.7786 25.4947C52.3402 26.4147 51.7514 27.0979 51.0186 27.5427C50.3018 27.9891 49.4842 28.2083 48.6234 28.2083H48.6074C47.7274 28.2083 46.9274 27.9699 46.1946 27.5123C45.4458 27.0355 44.8746 26.3379 44.4506 25.4179C44.0282 24.4819 43.8154 23.3539 43.8154 22.0211C43.8154 20.7667 44.0122 19.6579 44.401 18.7219C44.8074 17.7683 45.3626 17.0387 46.097 16.5331C46.8138 16.0083 47.6458 15.7699 48.5594 15.7699H48.6234C49.4874 15.7699 50.2858 16.0227 51.0042 16.5139C51.7546 17.0067 52.3402 17.7235 52.7802 18.6579C53.2026 19.5939 53.433 20.7219 53.433 22.0211C53.433 23.4163 53.201 24.5763 52.7786 25.4947ZM23.9914 14.7987V15.4035C24.8874 14.2595 25.849 13.4355 26.8938 12.8947C27.953 12.3731 29.1594 12.1011 30.529 12.1011C31.8506 12.1011 33.041 12.3891 34.081 12.9427C35.0913 13.4685 35.9078 14.3024 36.4122 15.3235C36.7562 15.9251 36.969 16.5779 37.065 17.2771C37.1626 17.9587 37.2106 18.8467 37.2106 19.9267V29.0227C37.2106 30.0051 36.9658 30.7507 36.5098 31.2419C36.0554 31.7491 35.4506 32.0019 34.7178 32.0019C33.9658 32.0019 33.3642 31.7491 32.8906 31.2275C32.417 30.7171 32.1882 29.9747 32.1882 29.0227V20.8739C32.1882 19.2563 31.9594 18.0195 31.5034 17.1619C31.0474 16.3075 30.1162 15.8771 28.7514 15.8771C27.8522 15.8771 27.0394 16.1459 26.3034 16.6547C25.5528 17.1916 24.9844 17.9453 24.6746 18.8147C24.4298 19.5427 24.3162 20.8915 24.3162 22.9107V29.0195C24.3162 30.0179 24.073 30.7475 23.601 31.2579C23.1274 31.7491 22.5258 32.0019 21.7738 32.0019C21.0394 32.0019 20.4506 31.7491 19.9802 31.2275C19.5066 30.7171 19.2794 29.9747 19.2794 29.0227V14.8787C19.2794 13.9443 19.4922 13.2467 19.9162 12.7987C20.3226 12.3411 20.8922 12.1011 21.6282 12.1011C22.0682 12.1011 22.4602 12.1971 22.817 12.4035C23.1754 12.6083 23.4666 12.9107 23.681 13.3219C23.8922 13.7347 23.9914 14.2291 23.9914 14.7987ZM10.505 0.755482C13.897 -0.434918 17.761 -0.370918 20.6618 2.07068C21.201 2.56188 21.8186 3.18268 22.0634 3.91068C22.3578 4.83388 21.0378 3.81468 20.857 3.68828C19.9098 3.08508 18.9658 2.57788 17.9066 2.22908C12.201 0.517082 6.80263 3.61148 3.44584 8.42108C2.04424 10.5427 1.13064 12.7827 0.383437 15.2403C0.300237 15.5091 0.236237 15.8595 0.0890369 16.0963C-0.0597631 16.3683 0.0250369 15.3683 0.0250369 15.3347C0.137037 14.3187 0.349837 13.3347 0.613837 12.3523C2.16104 7.11548 5.58343 2.75228 10.5066 0.752282L10.505 0.755482ZM17.0746 10.1651C17.0451 11.2131 16.608 12.2083 15.8563 12.9391C15.1046 13.6699 14.0975 14.0788 13.049 14.0788C12.0006 14.0788 10.9935 13.6699 10.2418 12.9391C9.49007 12.2083 9.05298 11.2131 9.02343 10.1651C9.00826 9.62688 9.10116 9.0911 9.29664 8.58943C9.49212 8.08776 9.78621 7.63037 10.1615 7.24433C10.5368 6.85829 10.9857 6.55142 11.4817 6.34188C11.9777 6.13234 12.5106 6.02437 13.049 6.02437C13.5874 6.02437 14.1204 6.13234 14.6164 6.34188C15.1123 6.55142 15.5612 6.85829 15.9365 7.24433C16.3119 7.63037 16.6059 8.08776 16.8014 8.58943C16.9969 9.0911 17.0898 9.62688 17.0746 10.1651Z" fill="#8F96BD"/>
</g>
<defs>
<clipPath id="clip0_3269_77479">
<rect width="120" height="32" fill="white"/>
</clipPath>
</defs>
</svg>
