<svg width="151" height="35" viewBox="0 0 151 35" fill="none" xmlns="http://www.w3.org/2000/svg">
<g clip-path="url(#clip0_3269_77500)">
<mask id="mask0_3269_77500" style="mask-type:luminance" maskUnits="userSpaceOnUse" x="0" y="0" width="151" height="35">
<path d="M151 0H0V35H151V0Z" fill="white"/>
</mask>
<g mask="url(#mask0_3269_77500)">
<path fill-rule="evenodd" clip-rule="evenodd" d="M39.956 16.0343L41.624 16.9478C42.3835 17.3568 42.7903 18.2158 42.6411 19.0475L41.1358 27.5828C40.973 28.4826 40.2543 29.1508 39.3592 29.2326L36.9588 29.4644C36.7418 29.7098 36.5113 29.9416 36.2807 30.1597C34.3143 32.0413 31.7105 33.3502 28.7269 34.1274C26.4485 34.7137 23.9532 35 21.3358 35C20.9968 35 20.6442 35 20.3052 34.9864C16.8741 34.8909 13.6871 34.2774 10.9747 33.1184C8.95408 32.2595 7.20462 31.0869 5.82133 29.5871L3.27175 29.2735C2.40381 29.1644 1.69861 28.51 1.54943 27.6373L0.0305275 19.0612C-0.11865 18.2158 0.288198 17.3568 1.04765 16.9478L2.71573 16.0343C3.59723 11.7667 5.88913 8.01714 9.07615 5.29021C10.1068 4.41761 11.2189 3.65407 12.4123 3.01325V1.94975C12.4123 1.0635 15.1517 0.299961 18.8948 0.068173C19.6813 0.0272692 20.495 0 21.3358 0C23.7227 0 25.8925 0.204519 27.4928 0.545383C29.2016 0.899885 30.2594 1.40436 30.2594 1.96338V3.02688C32.0359 3.9813 33.6362 5.19479 35.0195 6.64003C37.4742 9.18973 39.2236 12.4211 39.956 16.0343ZM10.5957 27.5967C13.091 29.3828 16.8069 30.3236 21.3365 30.3236C25.866 30.3236 29.5819 29.3828 32.1044 27.5967C34.5319 25.8514 35.7118 23.3427 35.7118 19.8931C35.7118 11.9305 29.27 5.4541 21.35 5.4541C13.43 5.4541 6.98828 11.9305 6.98828 19.8931C6.98828 23.3427 8.16813 25.8651 10.5957 27.5967Z" fill="#8F96BD"/>
<path d="M21.3364 26.9972C18.5156 26.9972 15.8982 25.3338 14.6641 22.7705L16.9424 21.6797C17.7697 23.3977 19.4513 24.4748 21.3364 24.4748C23.2215 24.4748 24.9167 23.4114 25.7304 21.6797L28.0087 22.7705C26.7746 25.3338 24.1572 26.9972 21.3364 26.9972Z" fill="#8F96BD"/>
<path d="M59.8593 27.4098C58.5547 27.4098 57.3475 27.1553 56.2379 26.6464C55.1474 26.1179 54.2518 25.3838 53.5508 24.4442L55.7122 21.8309C56.8414 23.3969 58.1944 24.18 59.7714 24.18C61.8936 24.18 62.955 22.9173 62.955 20.3922V9.76299V6.5625H66.7517V20.1866C66.7517 22.5944 66.1673 24.4051 64.9994 25.6187C63.831 26.8128 62.1178 27.4098 59.8593 27.4098Z" fill="#8F96BD"/>
<path d="M76.5913 11.2598C78.8885 11.2598 80.6409 11.8176 81.848 12.9334C83.0747 14.0296 83.6883 15.6935 83.6883 17.925V27.1155H80.2418V25.2069C79.7941 25.892 79.1518 26.4205 78.3145 26.7925C77.4964 27.1448 76.5038 27.321 75.3354 27.321C74.167 27.321 73.1448 27.1252 72.2689 26.7337C71.3929 26.3227 70.7114 25.7648 70.2245 25.0601C69.7571 24.3358 69.5234 23.5235 69.5234 22.623C69.5234 21.2136 70.0395 20.088 71.0713 19.2463C72.1226 18.385 73.768 17.9544 76.0073 17.9544H80.0373V17.7195C80.0373 16.6233 79.7066 15.7815 79.0443 15.1943C78.402 14.6071 77.4381 14.3134 76.1531 14.3134C75.2771 14.3134 74.4107 14.4505 73.5539 14.7245C72.7166 14.9986 72.006 15.3803 71.422 15.8697L69.9908 13.1977C70.8085 12.5713 71.7919 12.0917 72.9407 11.7589C74.0891 11.4261 75.3063 11.2598 76.5913 11.2598ZM76.0948 24.649C77.0099 24.649 77.818 24.4435 78.5186 24.0324C79.2392 23.6017 79.7453 22.9949 80.0373 22.2119V20.3914H76.2701C74.167 20.3914 73.1157 21.0864 73.1157 22.4762C73.1157 23.1417 73.3785 23.6702 73.9042 24.0618C74.4299 24.4533 75.16 24.649 76.0948 24.649Z" fill="#8F96BD"/>
<path d="M93.1903 27.321C91.9249 27.321 90.6886 27.1546 89.481 26.8218C88.2739 26.4891 87.3105 26.0682 86.5898 25.5592L87.9919 22.7698C88.6925 23.2396 89.5298 23.6213 90.5032 23.9149C91.4963 24.189 92.4697 24.326 93.424 24.326C95.6046 24.326 96.6951 23.7486 96.6951 22.5936C96.6951 22.0455 96.4127 21.6638 95.8478 21.4485C95.303 21.2332 94.417 21.0277 93.1903 20.8319C91.9053 20.6361 90.854 20.411 90.0363 20.1565C89.2378 19.9021 88.5367 19.4617 87.9332 18.8353C87.3492 18.1893 87.0572 17.2986 87.0572 16.1633C87.0572 14.6756 87.6703 13.4913 88.8971 12.6104C90.1433 11.71 91.8178 11.2598 93.9205 11.2598C94.9914 11.2598 96.0624 11.387 97.1329 11.6414C98.2038 11.8764 99.0802 12.1993 99.7617 12.6104L98.3596 15.3998C97.0358 14.6168 95.5463 14.2254 93.8914 14.2254C92.8204 14.2254 92.0028 14.3917 91.4379 14.7245C90.8927 15.0377 90.6203 15.4586 90.6203 15.9871C90.6203 16.5743 90.9123 16.9952 91.4963 17.2497C92.0998 17.4846 93.025 17.7097 94.2708 17.925C95.5171 18.1208 96.5393 18.3459 97.3374 18.6004C98.1359 18.8548 98.8174 19.2855 99.3818 19.8923C99.9657 20.4991 100.258 21.3604 100.258 22.4762C100.258 23.9443 99.625 25.1188 98.3596 25.9997C97.0941 26.8806 95.3709 27.321 93.1903 27.321Z" fill="#8F96BD"/>
<path d="M112.043 11.2598C113.562 11.2598 114.915 11.5925 116.103 12.2581C117.31 12.9236 118.254 13.8632 118.936 15.0769C119.617 16.2905 119.958 17.6901 119.958 19.2757C119.958 20.8613 119.617 22.2706 118.936 23.5039C118.254 24.7175 117.31 25.6571 116.103 26.3227C114.915 26.9882 113.562 27.321 112.043 27.321C109.941 27.321 108.276 26.6163 107.049 25.2069V32.8118H103.398V11.4359H106.874V13.4913C107.478 12.7474 108.217 12.1895 109.094 11.8176C109.989 11.4457 110.972 11.2598 112.043 11.2598ZM111.634 24.1792C112.978 24.1792 114.078 23.729 114.934 22.8285C115.811 21.9281 116.249 20.7438 116.249 19.2757C116.249 17.8076 115.811 16.6233 114.934 15.7228C114.078 14.8224 112.978 14.3722 111.634 14.3722C110.758 14.3722 109.97 14.5777 109.269 14.9888C108.568 15.3803 108.013 15.9479 107.604 16.6918C107.195 17.4356 106.991 18.297 106.991 19.2757C106.991 20.2544 107.195 21.1157 107.604 21.8596C108.013 22.6034 108.568 23.1809 109.269 23.592C109.97 23.9834 110.758 24.1792 111.634 24.1792Z" fill="#8F96BD"/>
<path d="M138.087 19.3638C138.087 19.6182 138.067 19.9804 138.028 20.4502H125.791C126.006 21.6051 126.561 22.5251 127.456 23.2103C128.371 23.8758 129.5 24.2086 130.844 24.2086C132.557 24.2086 133.969 23.6409 135.079 22.5056L137.035 24.7664C136.335 25.6082 135.449 26.2444 134.378 26.675C133.307 27.1057 132.1 27.321 130.756 27.321C129.043 27.321 127.534 26.9784 126.229 26.2933C124.925 25.6082 123.913 24.6588 123.192 23.4451C122.491 22.2119 122.141 20.8221 122.141 19.2757C122.141 17.7489 122.481 16.3786 123.163 15.1649C123.864 13.9317 124.828 12.9725 126.054 12.2874C127.281 11.6023 128.663 11.2598 130.201 11.2598C131.72 11.2598 133.073 11.6023 134.261 12.2874C135.468 12.953 136.403 13.9024 137.064 15.1356C137.746 16.3492 138.087 17.7586 138.087 19.3638ZM130.201 14.196C129.033 14.196 128.04 14.5483 127.222 15.253C126.424 15.9382 125.937 16.8582 125.762 18.0131H134.611C134.456 16.8777 133.979 15.9577 133.18 15.253C132.382 14.5483 131.389 14.196 130.201 14.196Z" fill="#8F96BD"/>
<path d="M145.069 13.7262C146.12 12.0819 147.97 11.2598 150.618 11.2598V14.7539C150.306 14.6951 150.024 14.6658 149.771 14.6658C148.35 14.6658 147.24 15.0867 146.442 15.9284C145.643 16.7505 145.244 17.9446 145.244 19.5106V27.1155H141.594V11.4359H145.069V13.7262Z" fill="#8F96BD"/>
</g>
</g>
<defs>
<clipPath id="clip0_3269_77500">
<rect width="151" height="35" fill="white"/>
</clipPath>
</defs>
</svg>
