<svg width="432" height="94" viewBox="0 0 432 94" fill="none" xmlns="http://www.w3.org/2000/svg">
<path fill-rule="evenodd" clip-rule="evenodd" d="M46.706 0.788086C20.9125 0.788086 0 21.6326 0 47.3424C0 73.0522 20.9125 93.8967 46.706 93.8967C72.4996 93.8967 93.4121 73.0522 93.4121 47.3424C93.4121 21.6326 72.4996 0.788086 46.706 0.788086ZM64.4718 76.4361C67.0024 71.5679 71.015 67.5729 75.8945 65.0506C82.3165 61.7339 86.702 55.0493 86.702 47.3428C86.702 39.6363 82.3165 32.9517 75.8945 29.635C71.015 27.1126 67.0024 23.1131 64.4718 18.2494C61.1443 11.8483 54.4379 7.47707 46.7063 7.47707C38.9747 7.47707 32.2683 11.8483 28.9408 18.2494C26.4102 23.1131 22.3976 27.1126 17.5181 29.635C11.0961 32.9517 6.7106 39.6363 6.7106 47.3428C6.7106 55.0493 11.0961 61.7339 17.5181 65.0506C22.4022 67.5729 26.4102 71.5725 28.9408 76.4361C32.2683 82.8373 38.9747 87.2085 46.7063 87.2085C54.4379 87.2085 61.1443 82.8373 64.4718 76.4361Z" fill="#161814"/>
<path fill-rule="evenodd" clip-rule="evenodd" d="M124.397 5.54496H157.536C174.877 5.54496 186.522 15.858 186.522 30.6967C186.522 45.5354 174.87 55.9824 157.529 55.9824H134.492V89.1209H124.397V5.54496ZM134.499 46.6985H159.087C171.127 46.6985 175.786 42.053 175.786 30.7038C175.786 19.3544 171.12 14.9628 159.087 14.9628H134.499V46.6985Z" fill="#161814"/>
<path d="M300.988 37.5205V28.4904H283.731V5.65785H273.764V28.4904H258.545V37.5205H273.764V74.2894C273.764 83.1926 279.721 89.1281 288.652 89.1281H300.946V80.098H283.731V37.5205H300.988Z" fill="#161814"/>
<path fill-rule="evenodd" clip-rule="evenodd" d="M241.147 28.4908V38.1877C236.442 31.1991 229.053 27.2008 219.711 27.2008C219.436 27.2008 219.162 27.2039 218.89 27.2101C218.631 27.2039 218.372 27.2008 218.11 27.2008C200.635 27.2008 188.99 39.8471 188.99 58.8026C188.99 77.758 200.642 90.4044 218.11 90.4044C218.372 90.4044 218.632 90.4013 218.89 90.395C219.025 90.3981 219.16 90.4005 219.296 90.402C219.434 90.4036 219.572 90.4044 219.711 90.4044C229.053 90.4044 236.442 86.406 241.147 79.4175V89.1144H251.115V28.4908H241.147ZM220.436 81.3813C205.943 81.3813 199.211 74.1558 199.211 58.8096C199.211 43.4634 205.943 36.2379 220.436 36.2379C234.93 36.2379 241.662 43.4634 241.662 58.8096C241.662 74.1558 234.937 81.3813 220.436 81.3813Z" fill="#161814"/>
<path d="M316.751 58.8093C316.753 74.2846 323.485 81.5079 337.849 81.5079C347.119 81.5079 352.73 78.4344 355.754 69.0518L365.976 70.7155C361.45 83.9469 351.221 90.4182 337.976 90.4182C319.338 90.4182 306.522 77.7788 306.522 58.8164C306.522 39.8538 319.331 27.2145 337.976 27.2145C351.158 27.2145 361.344 33.6153 365.898 46.7057L355.599 48.1367C352.54 39.0925 346.971 36.1107 337.842 36.1107C323.485 36.1107 316.753 43.334 316.751 58.8093Z" fill="#161814"/>
<path d="M398.05 27.7165C398.208 27.6805 398.368 27.6454 398.529 27.6112V27.6183C403.424 26.5738 408.491 26.8166 412.824 28.1765C422.207 30.8114 427.297 38.7111 427.297 50.9365V89.1223H417.329V51.585C417.329 41.6456 411.38 36.2318 402.321 36.2318C390.415 36.2318 382.908 45.3887 382.908 61.1297V89.1223H372.94V5.54633H382.908V39.788C385.703 33.6473 390.413 29.1708 398.05 27.7165Z" fill="#161814"/>
</svg>
