<?xml version="1.0" encoding="UTF-8"?> <svg xmlns="http://www.w3.org/2000/svg" width="868" height="190"><g id="Layer"><path id="Layer" fill-rule="evenodd" fill="#1c2541" d="M97.32 24.77C112.28 24.77 125.58 27.68 137.19 33.48C148.81 39.29 157.83 47.51 164.24 58.13C170.66 68.75 173.86 81.01 173.86 94.9C173.86 108.79 170.65 121.06 164.24 131.67C157.84 142.28 148.81 150.51 137.19 156.32C125.58 162.12 112.27 165.03 97.32 165.03L36 165.03L36 24.77L97.32 24.77ZM62.05 142.99L96.11 142.99C106.4 142.99 115.45 141.02 123.26 137.08C131.08 133.14 137.09 127.53 141.3 120.25C145.51 112.97 147.61 104.52 147.61 94.9C147.61 85.28 145.51 76.83 141.3 69.55C137.09 62.27 131.08 56.66 123.26 52.72C115.45 48.78 106.39 46.81 96.11 46.81L62.05 46.81L62.05 142.99ZM811.62 165.03L809.57 165.03C797.31 154.25 781.22 147.71 763.61 147.71C745.99 147.71 729.91 154.25 717.65 165.03L687.41 165.03L688.11 164.03L708.11 127.19L739.23 69.87L754.22 97.42L737.22 128.74C745.58 126.25 754.44 124.91 763.61 124.91C772.83 124.91 781.74 126.27 790.15 128.78L780.54 111.03L780.56 110.98L778.57 107.33L771.67 94.64L763.71 79.95L763.68 79.99L748.68 52.45L754.64 41.48L754.64 41.48L763.71 24.77L839.11 164.04L839.81 165.03L811.62 165.03L811.62 165.03ZM494.15 163.67L492.09 163.67C479.83 152.88 463.75 146.34 446.13 146.34C428.52 146.34 412.43 152.88 400.17 163.67L369.93 163.67L370.64 162.66L390.63 125.82L421.75 68.5L436.75 96.04L419.75 127.37C428.11 124.88 436.94 123.55 446.13 123.55C455.33 123.55 464.27 124.9 472.67 127.42L463.81 111.04L463.83 110.98L461.85 107.33L453.11 91.29L446.23 78.58L446.21 78.62L431.21 51.08L437.16 40.11L437.16 40.11L446.23 23.4L521.64 162.67L522.33 163.67L494.15 163.67L494.15 163.67ZM301.01 165.03L272.36 123.96L272.2 123.97L257.27 102.72L265.74 102.72C277.1 102.72 285.72 100.27 291.59 95.4C297.47 90.53 300.41 83.61 300.41 74.66C300.41 65.71 297.47 58.83 291.59 54.02C285.72 49.22 277.09 46.81 265.74 46.81L218 46.81L202.52 24.77L266.94 24.77C279.1 24.77 289.69 26.78 298.71 30.78C307.72 34.78 314.64 40.54 319.45 48.01C324.25 55.49 326.66 64.38 326.66 74.66C326.66 85.22 324.09 94.3 318.94 101.92C313.8 109.53 306.42 115.21 296.8 118.95L329.06 165.04L301.01 165.04L301.01 165.03ZM541.28 46.81L541.28 24.77L672.33 24.77L672.33 46.81L619.83 46.81L619.83 165.03L593.78 165.03L593.78 46.81L541.28 46.81Z"></path></g></svg> 