<svg width="157" height="26" viewBox="0 0 157 26" fill="none" xmlns="http://www.w3.org/2000/svg">
<g clip-path="url(#clip0_3684_154118)">
<path fill-rule="evenodd" clip-rule="evenodd" d="M41.9548 0.109863L28.5675 25.9701H15.9931L21.5956 15.2525H21.3443C16.7222 21.1814 9.82603 25.0844 0 25.9701V15.4008C0 15.4008 6.28595 15.0339 9.98128 11.1949H0V0.110068H11.2179V9.22719L11.4697 9.22617L16.0537 0.110068H24.5375V9.16939L24.7893 9.16897L29.5452 0.109863H41.9548Z" fill="#8F96BD"/>
<path d="M114.956 23.1156H118.569V2.62402H114.956V23.1156Z" fill="#8F96BD"/>
<path fill-rule="evenodd" clip-rule="evenodd" d="M95.0401 22.9065C95.8254 23.229 96.6238 23.3903 97.4355 23.3903C98.7766 23.3903 99.9763 23.0677 101.035 22.4226C102.094 21.7775 102.914 20.8883 103.497 19.7549C104.079 18.6129 104.37 17.3182 104.37 15.871C104.37 14.4239 104.07 13.1293 103.47 11.9872C102.87 10.8452 102.037 9.9603 100.969 9.33259C99.9015 8.69618 98.6883 8.38235 97.3296 8.39106C96.465 8.39106 95.6357 8.5567 94.8417 8.88798C94.0475 9.21927 93.3859 9.69004 92.8565 10.3003C92.8157 10.3468 92.776 10.3937 92.7375 10.4411V2.63721H89.1113V23.1157H92.711L92.7037 21.2026C92.7969 21.3153 92.8963 21.4257 93.0022 21.5334C93.5757 22.1175 94.255 22.5751 95.0401 22.9065ZM98.7456 19.5981C98.1545 19.9554 97.4796 20.1341 96.7209 20.1341C95.9709 20.1341 95.2827 19.9511 94.6563 19.585C94.0299 19.2101 93.5315 18.7001 93.1609 18.0549C92.7992 17.4097 92.6184 16.6774 92.6184 15.8579C92.6095 15.0386 92.786 14.3062 93.1477 13.6611C93.5182 13.0072 94.0167 12.5016 94.6431 12.1441C95.2695 11.778 95.9621 11.5993 96.7209 11.608C97.4796 11.5993 98.1545 11.7736 98.7456 12.1311C99.3456 12.4798 99.8043 12.9811 100.122 13.6349C100.448 14.2801 100.612 15.021 100.612 15.8579C100.612 16.695 100.448 17.4359 100.122 18.0811C99.8043 18.7263 99.3456 19.2319 98.7456 19.5981Z" fill="#8F96BD"/>
<path d="M47.1895 3.86646H51.3184L55.012 17.1954L58.9412 3.86646H62.382L66.6433 16.928L70.1899 3.86646H73.9748L68.3901 23.1157H64.8301L60.4971 10.3558L56.5193 23.1157H52.9197L47.1895 3.86646Z" fill="#8F96BD"/>
<path fill-rule="evenodd" clip-rule="evenodd" d="M80.0724 23.4556C78.6342 23.4644 77.3374 23.1505 76.1815 22.5141C75.0347 21.869 74.1303 20.9754 73.4686 19.8333C72.8158 18.6913 72.4893 17.388 72.4893 15.9234C72.4893 14.5023 72.8246 13.2164 73.4951 12.0656C74.1655 10.9148 75.0744 10.0169 76.2212 9.37174C77.3682 8.72662 78.6474 8.40405 80.0591 8.40405C81.6472 8.40405 83.0368 8.75277 84.2278 9.45022C85.4277 10.1476 86.3231 11.1371 86.9142 12.4187C87.5142 13.6915 87.7303 15.1518 87.5627 16.7995H76.2269C76.2586 17.4559 76.4243 18.0531 76.7242 18.591C77.0594 19.1838 77.5271 19.6458 78.1269 19.9772C78.7268 20.3084 79.3974 20.4741 80.1385 20.4741C80.7031 20.4653 81.2281 20.3695 81.7133 20.1863C82.1985 19.9946 82.6088 19.7375 82.9441 19.4148C83.2881 19.0923 83.5307 18.7262 83.6719 18.3164H87.4569C87.2275 19.319 86.7687 20.2125 86.0805 20.9971C85.3923 21.7731 84.5277 22.379 83.4867 22.8148C82.4455 23.2508 81.3074 23.4644 80.0724 23.4556ZM76.7374 13.2033C76.5259 13.5676 76.3795 13.9599 76.298 14.3802H83.8122C83.7576 13.8492 83.5918 13.3654 83.3146 12.9287C82.9971 12.4143 82.5647 12.0177 82.0177 11.7387C81.4707 11.451 80.8531 11.3071 80.165 11.3071C79.4327 11.3071 78.7666 11.4728 78.1667 11.8041C77.5668 12.1353 77.0902 12.6018 76.7374 13.2033Z" fill="#8F96BD"/>
<path d="M107.028 8.70464C107.028 7.53644 107.298 6.49899 107.836 5.59232C108.374 4.67694 109.128 3.96643 110.099 3.46078C111.078 2.94643 112.221 2.68052 113.526 2.66309V5.84079C112.917 5.84951 112.397 5.97592 111.965 6.22003C111.541 6.45541 111.215 6.79977 110.985 7.25311C110.774 7.67046 110.66 8.1543 110.643 8.70464H113.447V11.7254H110.641V23.1154H107.028V11.7254H104.699V8.70464H107.028Z" fill="#8F96BD"/>
<path fill-rule="evenodd" clip-rule="evenodd" d="M127.753 23.4293C126.28 23.4293 124.961 23.1112 123.796 22.4748C122.641 21.8296 121.732 20.9404 121.07 19.807C120.417 18.665 120.091 17.3703 120.091 15.9232C120.091 14.4672 120.417 13.1683 121.07 12.0263C121.732 10.8755 122.641 9.9819 123.796 9.34549C124.961 8.70907 126.28 8.39087 127.753 8.39087C129.235 8.39087 130.559 8.70907 131.724 9.34549C132.897 9.9819 133.81 10.8711 134.463 12.0132C135.116 13.1552 135.447 14.4586 135.455 15.9232C135.447 17.3703 135.116 18.665 134.463 19.807C133.819 20.9404 132.91 21.8296 131.737 22.4748C130.563 23.1112 129.235 23.4293 127.753 23.4293ZM127.753 20.147C128.53 20.147 129.218 19.9726 129.818 19.624C130.418 19.2665 130.881 18.7696 131.207 18.1332C131.534 17.4881 131.697 16.7514 131.697 15.9232C131.697 15.0862 131.534 14.3452 131.207 13.7001C130.881 13.055 130.418 12.5581 129.818 12.2093C129.218 11.8519 128.53 11.6732 127.753 11.6732C126.986 11.6732 126.302 11.8519 125.702 12.2093C125.111 12.5581 124.652 13.055 124.326 13.7001C123.999 14.3452 123.841 15.0862 123.849 15.9232C123.849 16.7514 124.012 17.4881 124.339 18.1332C124.674 18.7696 125.133 19.2665 125.715 19.624C126.306 19.9726 126.986 20.147 127.753 20.147Z" fill="#8F96BD"/>
<path d="M139.359 8.70483H135.336L139.69 23.1156H143.21L146.074 13.9115L149.166 23.1156H152.633L157 8.70483H153.361L150.884 17.6747L148.147 8.70483H144.626L141.902 17.8722L139.359 8.70483Z" fill="#8F96BD"/>
</g>
<defs>
<clipPath id="clip0_3684_154118">
<rect width="157" height="26" fill="white"/>
</clipPath>
</defs>
</svg>
