<svg width="185" height="31" viewBox="0 0 185 31" fill="none" xmlns="http://www.w3.org/2000/svg">
<g clip-path="url(#clip0_3684_154118)">
<path fill-rule="evenodd" clip-rule="evenodd" d="M49.4371 0.130859L33.6623 30.9643H18.8453L25.4471 18.1856H25.1509C19.7046 25.2546 11.5784 29.9082 0 30.9643V18.3623C0 18.3623 7.40701 17.9249 11.7614 13.3477H0V0.131103H13.2185V11.0015L13.5152 11.0003L18.9168 0.131103H28.9136V10.9326L29.2103 10.9321L34.8144 0.130859H49.4371Z" fill="#146EF5"/>
<path d="M135.457 27.5609H139.714V3.12866H135.457V27.5609Z" fill="#146EF5"/>
<path fill-rule="evenodd" clip-rule="evenodd" d="M111.99 27.3115C112.915 27.696 113.856 27.8884 114.813 27.8884C116.393 27.8884 117.807 27.5037 119.054 26.7345C120.302 25.9654 121.268 24.9052 121.955 23.5539C122.641 22.1923 122.984 20.6486 122.984 18.923C122.984 17.1977 122.63 15.6541 121.924 14.2924C121.217 12.9307 120.234 11.8757 118.976 11.1272C117.718 10.3685 116.289 9.99426 114.688 10.0047C113.669 10.0047 112.692 10.2021 111.756 10.5971C110.82 10.9921 110.041 11.5534 109.417 12.281C109.369 12.3364 109.322 12.3924 109.277 12.4489V3.14429H105.004V27.5609H109.246L109.237 25.2799C109.347 25.4144 109.464 25.5459 109.589 25.6744C110.264 26.3708 111.065 26.9164 111.99 27.3115ZM116.356 23.3668C115.66 23.793 114.865 24.006 113.971 24.006C113.087 24.006 112.276 23.7878 111.538 23.3513C110.8 22.9042 110.212 22.2962 109.776 21.5269C109.35 20.7577 109.136 19.8846 109.136 18.9075C109.126 17.9305 109.334 17.0573 109.76 16.2881C110.197 15.5085 110.784 14.9057 111.522 14.4795C112.26 14.0429 113.076 13.8298 113.971 13.8402C114.865 13.8298 115.66 14.0377 116.356 14.4639C117.063 14.8797 117.604 15.4774 117.978 16.2569C118.363 17.0261 118.555 17.9096 118.555 18.9075C118.555 19.9055 118.363 20.7889 117.978 21.5582C117.604 22.3274 117.063 22.9303 116.356 23.3668Z" fill="#146EF5"/>
<path d="M55.6055 4.60986H60.4708L64.8231 20.5021L69.4531 4.60986H73.5075L78.5288 20.1832L82.708 4.60986H87.1678L80.5871 27.5609H76.3923L71.2864 12.3471L66.5993 27.5609H62.3576L55.6055 4.60986Z" fill="#146EF5"/>
<path fill-rule="evenodd" clip-rule="evenodd" d="M94.3525 27.9661C92.6579 27.9765 91.1297 27.6023 89.7677 26.8436C88.4164 26.0744 87.3508 25.0089 86.571 23.6472C85.8017 22.2856 85.417 20.7316 85.417 18.9853C85.417 17.291 85.8122 15.7578 86.6022 14.3857C87.3922 13.0136 88.4631 11.943 89.8145 11.1738C91.166 10.4046 92.6734 10.02 94.3369 10.02C96.2081 10.02 97.8456 10.4358 99.249 11.2674C100.663 12.0989 101.718 13.2787 102.415 14.8067C103.121 16.3243 103.376 18.0654 103.179 20.0299H89.8212C89.8585 20.8126 90.0538 21.5246 90.4072 22.166C90.8022 22.8728 91.3533 23.4237 92.06 23.8188C92.767 24.2137 93.5572 24.4112 94.4304 24.4112C95.0957 24.4007 95.7143 24.2865 96.2861 24.0681C96.8579 23.8395 97.3413 23.5329 97.7364 23.1482C98.1417 22.7637 98.4276 22.3272 98.594 21.8385H103.054C102.784 23.034 102.243 24.0993 101.432 25.0348C100.621 25.96 99.6024 26.6824 98.3757 27.2021C97.1489 27.7219 95.8078 27.9765 94.3525 27.9661ZM90.4228 15.7422C90.1735 16.1766 90.001 16.6443 89.905 17.1454H98.7593C98.695 16.5124 98.4996 15.9355 98.1729 15.4148C97.7988 14.8015 97.2894 14.3285 96.6448 13.9959C96.0002 13.6529 95.2725 13.4814 94.4616 13.4814C93.5988 13.4814 92.8139 13.6789 92.107 14.0739C91.4 14.4689 90.8385 15.025 90.4228 15.7422Z" fill="#146EF5"/>
<path d="M126.117 10.3787C126.117 8.98582 126.434 7.74887 127.068 6.66785C127.702 5.57642 128.591 4.72928 129.735 4.12639C130.888 3.51312 132.235 3.19609 133.773 3.17529V6.96409C133.056 6.97449 132.443 7.12521 131.933 7.41626C131.434 7.69691 131.05 8.1075 130.779 8.64801C130.53 9.14562 130.396 9.72251 130.376 10.3787H133.68V13.9804H130.374V27.5608H126.117V13.9804H123.372V10.3787H126.117Z" fill="#146EF5"/>
<path fill-rule="evenodd" clip-rule="evenodd" d="M150.538 27.9351C148.802 27.9351 147.248 27.5558 145.875 26.797C144.513 26.0277 143.443 24.9675 142.663 23.6162C141.894 22.2546 141.509 20.7109 141.509 18.9855C141.509 17.2495 141.894 15.7008 142.663 14.3391C143.443 12.9671 144.513 11.9016 145.875 11.1428C147.248 10.384 148.802 10.0046 150.538 10.0046C152.284 10.0046 153.844 10.384 155.216 11.1428C156.599 11.9016 157.675 12.9619 158.444 14.3236C159.213 15.6852 159.603 17.2393 159.614 18.9855C159.603 20.7109 159.213 22.2546 158.444 23.6162C157.685 24.9675 156.614 26.0277 155.232 26.797C153.849 27.5558 152.284 27.9351 150.538 27.9351ZM150.538 24.0216C151.453 24.0216 152.264 23.8137 152.971 23.398C153.678 22.9717 154.223 22.3793 154.608 21.6205C154.993 20.8514 155.185 19.9729 155.185 18.9855C155.185 17.9875 154.993 17.1041 154.608 16.3349C154.223 15.5657 153.678 14.9732 152.971 14.5574C152.264 14.1313 151.453 13.9182 150.538 13.9182C149.633 13.9182 148.828 14.1313 148.121 14.5574C147.424 14.9732 146.884 15.5657 146.499 16.3349C146.114 17.1041 145.927 17.9875 145.938 18.9855C145.938 19.9729 146.13 20.8514 146.515 21.6205C146.91 22.3793 147.45 22.9717 148.136 23.398C148.833 23.8137 149.633 24.0216 150.538 24.0216Z" fill="#146EF5"/>
<path d="M164.213 10.3789H159.473L164.603 27.561H168.751L172.125 16.5868L175.769 27.561H179.854L185 10.3789H180.713L177.794 21.0738L174.568 10.3789H170.42L167.209 21.3092L164.213 10.3789Z" fill="#146EF5"/>
</g>
<defs>
<clipPath id="clip0_3684_154118">
<rect width="185" height="31" fill="white"/>
</clipPath>
</defs>
</svg>
