<svg width="464" height="128" viewBox="0 0 464 128" fill="none" xmlns="http://www.w3.org/2000/svg">
<path d="M45.6261 6.16412C45.8547 5.15331 46.7529 4.43561 47.7892 4.43561H62.0929C63.5152 4.43561 64.5698 5.75547 64.2561 7.14269L44.1902 95.8547C43.9616 96.8655 43.0634 97.5832 42.0271 97.5832H27.7234C26.3012 97.5832 25.2465 96.2634 25.5603 94.8761L45.6261 6.16412Z" fill="#06AA00"/>
<path d="M20.1214 6.16412C20.35 5.15331 21.2482 4.43561 22.2845 4.43561H36.5882C38.0105 4.43561 39.0651 5.75547 38.7514 7.14269L18.6855 95.8547C18.4569 96.8655 17.5587 97.5832 16.5224 97.5832H2.21873C0.796456 97.5832 -0.258205 96.2634 0.0555728 94.8761L20.1214 6.16412Z" fill="#06AA00"/>
<path d="M188.221 90.8995C183.672 96.6606 177.478 99.5411 169.638 99.5411C164.57 99.5411 159.74 98.2633 155.148 95.7076C150.037 92.8487 146.074 88.9286 143.258 83.9472C140.529 79.0958 139.165 73.5513 139.165 67.3137C139.165 57.0477 142.738 48.8393 149.886 42.6883C155.56 37.7936 162.079 35.3462 169.443 35.3462C173.341 35.3462 176.785 35.9743 179.774 37.2305C182.806 38.4866 185.622 40.4792 188.221 43.2081V41.7137C188.221 39.7645 188.48 38.5516 189 38.0751C189.52 37.5553 190.755 37.2954 192.704 37.2954H205.114C207.063 37.2954 208.276 37.5553 208.753 38.0751C209.272 38.5516 209.532 39.7645 209.532 41.7137V93.1736C209.532 95.1228 209.272 96.3574 208.753 96.8772C208.276 97.3536 207.063 97.5919 205.114 97.5919H192.704C190.755 97.5919 189.52 97.3536 189 96.8772C188.48 96.3574 188.221 95.1228 188.221 93.1736V90.8995ZM175.096 53.734C171.284 53.734 168.035 55.0768 165.349 57.7624C162.664 60.4481 161.321 63.7184 161.321 67.5736C161.321 71.2122 162.664 74.3959 165.349 77.1249C167.992 79.8105 171.24 81.1533 175.096 81.1533C178.907 81.1533 182.156 79.8105 184.842 77.1249C187.527 74.4393 188.87 71.2122 188.87 67.4437C188.87 63.5885 187.527 60.3614 184.842 57.7624C182.07 55.0768 178.821 53.734 175.096 53.734Z" fill="#222528"/>
<path d="M262.299 90.8995C259.137 93.845 256.148 95.9025 253.333 97.0721C250.561 98.2416 247.225 98.8264 243.327 98.8264C233.451 98.8264 225.675 95.2311 220.001 88.0406C215.799 82.7127 213.698 76.1503 213.698 68.3533C213.698 58.4772 216.839 50.442 223.12 44.2477C228.967 38.4866 236.05 35.6061 244.366 35.6061C248.222 35.6061 251.535 36.2342 254.308 37.4904C257.123 38.7032 259.787 40.7391 262.299 43.598V41.7137C262.299 39.8078 262.559 38.5949 263.079 38.0751C263.642 37.5553 264.877 37.2954 266.783 37.2954H279.193C281.142 37.2954 282.355 37.5553 282.831 38.0751C283.351 38.5516 283.611 39.7645 283.611 41.7137V93.4335C283.611 101.664 282.593 107.685 280.557 111.496C277.352 117.561 272.544 121.979 266.133 124.751C261.238 126.917 255.477 128 248.85 128C235.162 128 225.004 123.495 218.377 114.485C216.471 111.886 215.518 109.526 215.518 107.403C215.518 106.493 215.843 105.844 216.492 105.454C217.142 105.107 218.29 104.934 219.936 104.934H234.88C236.439 104.934 237.457 105.042 237.934 105.259C238.41 105.475 238.844 106.017 239.233 106.883C239.71 108.053 240.858 109.027 242.677 109.807C244.496 110.587 246.489 110.977 248.655 110.977C253.506 110.977 257.231 109.287 259.83 105.909C261.476 103.743 262.299 100.646 262.299 96.6173V90.8995ZM249.629 53.5391C245.774 53.5391 242.525 54.8819 239.883 57.5675C237.198 60.2531 235.855 63.5452 235.855 67.4437C235.855 71.1255 237.198 74.3093 239.883 76.9949C242.525 79.6805 245.774 81.0234 249.629 81.0234C253.441 81.0234 256.668 79.6805 259.311 76.9949C262.039 74.266 263.404 71.0173 263.404 67.2487C263.404 63.4369 262.039 60.2098 259.311 57.5675C256.582 54.8819 253.355 53.5391 249.629 53.5391Z" fill="#222528"/>
<path d="M311.493 41.7137V93.1736C311.493 95.1228 311.233 96.3574 310.713 96.8772C310.237 97.3536 309.024 97.5919 307.075 97.5919H294.6C292.65 97.5919 291.416 97.3536 290.896 96.8772C290.42 96.3574 290.181 95.1228 290.181 93.1736V41.7137C290.181 39.7645 290.42 38.5516 290.896 38.0751C291.416 37.5553 292.65 37.2954 294.6 37.2954H307.075C309.024 37.2954 310.237 37.5553 310.713 38.0751C311.233 38.5516 311.493 39.7645 311.493 41.7137ZM300.837 2.14416C304.173 2.14416 307.01 3.31371 309.349 5.65279C311.688 7.99188 312.857 10.8074 312.857 14.0995C312.857 17.4349 311.688 20.2721 309.349 22.6112C307.01 24.9503 304.194 26.1198 300.902 26.1198C297.523 26.1198 294.686 24.9503 292.39 22.6112C290.051 20.2288 288.882 17.3482 288.882 13.9695C288.882 10.7641 290.051 7.99188 292.39 5.65279C294.773 3.31371 297.588 2.14416 300.837 2.14416Z" fill="#222528"/>
<path d="M363.61 42.2335V50.4853C363.61 52.088 363.502 53.1276 363.286 53.6041C362.852 54.5137 362.138 54.9685 361.141 54.9685C360.752 54.9685 360.232 54.8386 359.582 54.5787C356.983 53.5391 354.666 53.0193 352.63 53.0193C347.995 53.0193 344.248 54.6003 341.389 57.7624C339.05 60.3614 337.88 63.6535 337.88 67.6386C337.88 71.9702 339.31 75.4572 342.169 78.0995C345.071 80.7851 348.536 82.1279 352.565 82.1279C354.817 82.1279 357.135 81.6514 359.517 80.6985C360.253 80.4386 360.795 80.3086 361.141 80.3086C362.787 80.3086 363.61 81.7814 363.61 84.7269V92.7188C363.61 94.1049 363.545 94.9929 363.415 95.3827C363.329 95.7726 363.091 96.1408 362.701 96.4873C361.704 97.267 359.734 97.9817 356.788 98.6315C353.886 99.2812 351.2 99.6061 348.731 99.6061C342.45 99.6061 336.581 97.9817 331.123 94.733C320.857 88.6687 315.724 79.7455 315.724 67.9635C315.724 58.0007 319.319 49.8788 326.51 43.598C332.704 38.1401 340.285 35.4112 349.251 35.4112C351.893 35.4112 354.557 35.7144 357.243 36.3208C359.929 36.9272 361.748 37.642 362.701 38.465C363.307 38.9415 363.61 40.1976 363.61 42.2335Z" fill="#222528"/>
<path d="M414.493 90.8995C409.945 96.6606 403.751 99.5411 395.911 99.5411C390.843 99.5411 386.013 98.2633 381.421 95.7076C376.31 92.8487 372.346 88.9286 369.531 83.9472C366.802 79.0958 365.438 73.5513 365.438 67.3137C365.438 57.0477 369.011 48.8393 376.158 42.6883C381.833 37.7936 388.352 35.3462 395.716 35.3462C399.614 35.3462 403.058 35.9743 406.047 37.2305C409.079 38.4866 411.894 40.4792 414.493 43.2081V41.7137C414.493 39.7645 414.753 38.5516 415.273 38.0751C415.793 37.5553 417.027 37.2954 418.977 37.2954H431.387C433.336 37.2954 434.549 37.5553 435.025 38.0751C435.545 38.5516 435.805 39.7645 435.805 41.7137V93.1736C435.805 95.1228 435.545 96.3574 435.025 96.8772C434.549 97.3536 433.336 97.5919 431.387 97.5919H418.977C417.027 97.5919 415.793 97.3536 415.273 96.8772C414.753 96.3574 414.493 95.1228 414.493 93.1736V90.8995ZM401.368 53.734C397.557 53.734 394.308 55.0768 391.622 57.7624C388.937 60.4481 387.594 63.7184 387.594 67.5736C387.594 71.2122 388.937 74.3959 391.622 77.1249C394.265 79.8105 397.513 81.1533 401.368 81.1533C405.18 81.1533 408.429 79.8105 411.115 77.1249C413.8 74.4393 415.143 71.2122 415.143 67.4437C415.143 63.5885 413.8 60.3614 411.115 57.7624C408.342 55.0768 405.094 53.734 401.368 53.734Z" fill="#222528"/>
<path d="M463.687 4.41827V93.1736C463.687 95.1228 463.427 96.3574 462.907 96.8772C462.431 97.3536 461.218 97.5919 459.269 97.5919H446.794C444.844 97.5919 443.61 97.3536 443.09 96.8772C442.613 96.3574 442.375 95.1228 442.375 93.1736V4.41827C442.375 2.46904 442.613 1.25618 443.09 0.779695C443.61 0.259898 444.844 0 446.794 0H459.269C461.218 0 462.431 0.259898 462.907 0.779695C463.427 1.25618 463.687 2.46904 463.687 4.41827Z" fill="#222528"/>
<path fill-rule="evenodd" clip-rule="evenodd" d="M60.7093 48.8408C60.5706 49.4382 60.6184 50.0639 60.8462 50.6333L78.292 94.2478C78.9417 95.8939 79.4832 96.8685 79.9163 97.1717C80.3495 97.4316 81.4541 97.5615 83.23 97.5615H85.2443C87.0202 97.5615 88.1031 97.4316 88.493 97.1717C88.9261 96.8685 89.4893 95.9155 90.1823 94.3128L110.259 46.4915L116.237 93.4681C116.497 95.3741 116.865 96.5436 117.342 96.9768C117.818 97.3666 119.009 97.5615 120.915 97.5615H135.015C136.704 97.5615 137.852 97.3883 138.458 97.0417C139.108 96.6519 139.433 95.9805 139.433 95.0275C139.433 94.681 139.346 93.923 139.173 92.7534L127.088 12.8996C126.785 11.037 126.395 9.91078 125.918 9.52093C125.442 9.08777 124.272 8.87119 122.41 8.87119H107.141C105.365 8.87119 104.26 9.02279 103.827 9.32601C103.437 9.58591 102.896 10.5389 102.203 12.1849L84.5295 56.1727L72.1829 23.6967C71.13 20.9272 67.1264 21.1982 66.4564 24.0844L60.7093 48.8408Z" fill="#222528"/>
</svg>
